<?xml version="1.0" standalone="no"?>
<!DOCTYPE svg PUBLIC "-//W3C//DTD SVG 20010904//EN"
 "http://www.w3.org/TR/2001/REC-SVG-20010904/DTD/svg10.dtd">
<svg version="1.0" xmlns="http://www.w3.org/2000/svg"
 width="1918.000000pt" height="888.000000pt" viewBox="0 0 1918.000000 888.000000"
 preserveAspectRatio="xMidYMid meet">
<metadata>
Created by potrace 1.16, written by Peter Selinger 2001-2019
</metadata>
<g transform="translate(0.000000,888.000000) scale(0.100000,-0.100000)"
fill="#000000" stroke="none">
<path d="M0 8855 l0 -25 9590 0 9590 0 0 25 0 25 -9590 0 -9590 0 0 -25z"/>
<path d="M457 8272 c-74 -74 -90 -103 -66 -118 8 -5 8 -9 -1 -14 -9 -5 -5 -10
11 -15 35 -11 72 -47 57 -56 -8 -5 -3 -10 14 -14 15 -4 34 -15 44 -26 9 -10
22 -19 28 -19 6 0 49 38 95 84 l84 84 -79 86 c-43 47 -85 86 -94 86 -8 0 -50
-35 -93 -78z"/>
<path d="M860 8270 c0 -5 5 -10 10 -10 6 0 10 -43 10 -110 0 -67 -4 -110 -10
-110 -5 0 -10 -7 -10 -15 0 -12 13 -15 55 -15 42 0 55 3 55 15 0 8 -4 15 -10
15 -5 0 -10 23 -10 50 l0 50 50 0 50 0 0 -49 c0 -34 -4 -51 -15 -55 -34 -13
-12 -26 45 -26 57 0 79 13 45 26 -12 5 -15 27 -15 115 0 90 3 109 15 109 8 0
15 5 15 10 0 6 -27 10 -60 10 -33 0 -60 -4 -60 -10 0 -5 7 -10 15 -10 11 0 15
-12 15 -50 l0 -50 -50 0 -50 0 0 50 c0 28 5 50 10 50 6 0 10 5 10 10 0 6 -25
10 -55 10 -30 0 -55 -4 -55 -10z"/>
<path d="M1212 8195 c-37 -31 -48 -81 -28 -129 17 -42 42 -56 94 -56 33 0 45
6 66 31 43 51 30 136 -25 165 -41 21 -74 17 -107 -11z"/>
<path d="M1436 8211 c-28 -6 -50 -31 -27 -31 7 0 11 -26 11 -70 0 -40 -4 -70
-10 -70 -5 0 -10 -7 -10 -15 0 -12 13 -15 55 -15 42 0 55 3 55 15 0 8 -7 15
-15 15 -12 0 -15 14 -15 63 0 57 11 87 31 87 4 0 6 -8 5 -17 -1 -13 6 -18 24
-18 28 0 39 27 20 50 -16 20 -39 19 -62 -2 -17 -15 -18 -15 -18 0 0 10 -3 16
-7 16 -5 -1 -21 -4 -37 -8z"/>
<path d="M1970 8207 c-61 -31 -68 -141 -11 -184 9 -7 35 -13 59 -13 62 0 92
32 92 100 0 44 -5 56 -29 81 -32 32 -69 37 -111 16z"/>
<path d="M2186 8211 c-28 -6 -50 -31 -27 -31 7 0 11 -26 11 -70 0 -40 -4 -70
-10 -70 -5 0 -10 -7 -10 -15 0 -11 12 -15 50 -15 50 0 59 7 39 27 -5 5 -9 38
-7 74 3 54 6 64 22 67 29 6 46 -25 46 -84 0 -37 -4 -54 -15 -58 -33 -12 -12
-26 40 -26 52 0 73 14 40 26 -11 5 -15 24 -15 80 0 64 -3 75 -22 88 -29 21
-57 20 -80 -1 -17 -15 -18 -15 -18 0 0 10 -3 16 -7 16 -5 -1 -21 -4 -37 -8z"/>
<path d="M1722 8183 c4 -34 38 -46 38 -14 0 17 6 21 30 21 17 0 30 -2 30 -5 0
-3 -22 -39 -50 -80 -27 -41 -50 -79 -50 -85 0 -6 34 -10 90 -10 l90 0 0 30 c0
23 -4 30 -20 30 -11 0 -20 -7 -20 -15 0 -10 -11 -15 -35 -15 l-36 0 51 72 c27
39 50 77 50 85 0 10 -21 13 -86 13 l-85 0 3 -27z"/>
<path d="M4100 7988 c0 -2 20 -75 44 -163 l43 -160 34 -3 35 -3 29 120 c16 66
31 118 33 116 2 -2 13 -39 23 -82 42 -166 36 -153 73 -153 l33 0 42 153 c22
84 41 158 41 165 0 7 -13 12 -28 12 -28 0 -29 -2 -55 -114 -15 -62 -27 -122
-27 -131 0 -37 -11 -4 -41 119 l-31 127 -31 -3 -31 -3 -32 -129 -31 -129 -22
95 c-39 170 -38 168 -71 168 -17 0 -30 -1 -30 -2z"/>
<path d="M4820 7825 l0 -165 30 0 30 0 0 165 0 165 -30 0 -30 0 0 -165z"/>
<path d="M6430 7930 c0 -63 -4 -69 -29 -46 -71 64 -163 -18 -147 -129 13 -82
96 -125 146 -75 11 11 22 20 25 20 3 0 5 -9 5 -20 0 -13 7 -20 20 -20 19 0 20
7 20 165 0 158 -1 165 -20 165 -18 0 -20 -7 -20 -60z m-19 -87 c21 -24 18 -97
-5 -122 -44 -48 -113 -1 -103 72 3 21 11 44 17 52 17 20 74 19 91 -2z"/>
<path d="M6810 7930 c0 -20 -5 -30 -15 -30 -8 0 -15 -9 -15 -20 0 -11 7 -20
15 -20 12 0 15 -16 15 -80 0 -67 3 -83 20 -100 27 -27 80 -27 80 -1 0 13 -8
21 -22 23 -21 3 -23 9 -26 81 -3 77 -3 77 23 77 18 0 25 5 25 20 0 15 -7 20
-25 20 -21 0 -25 5 -25 30 0 25 -4 30 -25 30 -21 0 -25 -5 -25 -30z"/>
<path d="M4620 7903 c-81 -30 -102 -169 -33 -222 35 -29 111 -29 147 0 31 25
33 36 6 44 -12 4 -26 0 -36 -9 -23 -24 -70 -20 -88 6 -30 43 -22 48 69 48 84
0 85 0 85 25 0 76 -80 133 -150 108z"/>
<path d="M4993 7895 c-71 -31 -86 -152 -24 -207 44 -40 108 -39 152 0 33 29
33 52 0 52 -10 0 -26 -9 -36 -20 -23 -25 -57 -26 -78 -2 -22 24 -23 105 -1
126 21 22 59 20 81 -4 13 -13 26 -17 41 -13 12 3 22 7 22 10 0 16 -25 45 -50
58 -36 18 -65 19 -107 0z"/>
<path d="M5252 7895 c-70 -30 -83 -153 -23 -207 25 -22 41 -28 79 -28 73 1
112 42 112 119 0 57 -15 88 -52 111 -39 23 -70 25 -116 5z m99 -52 c21 -24 18
-97 -5 -122 -25 -27 -61 -27 -80 1 -21 30 -20 96 1 120 20 22 66 23 84 1z"/>
<path d="M5477 7903 c-4 -3 -7 -60 -7 -125 l0 -118 30 0 30 0 0 88 c0 93 8
112 45 112 37 0 45 -19 45 -112 0 -87 0 -88 25 -88 25 0 25 1 25 81 0 90 10
119 43 119 39 0 47 -18 47 -112 l0 -88 31 0 31 0 -4 106 c-3 97 -5 107 -27
125 -32 26 -77 24 -105 -4 l-23 -23 -21 23 c-25 28 -61 30 -89 4 -21 -20 -21
-20 -26 0 -5 18 -36 26 -50 12z"/>
<path d="M5928 7894 c-37 -20 -58 -63 -58 -120 0 -39 5 -51 34 -80 30 -30 40
-34 85 -34 43 0 57 5 79 27 l26 26 -22 10 c-17 8 -26 6 -40 -6 -19 -18 -59
-22 -78 -9 -16 10 -34 48 -27 56 3 3 42 6 85 6 l78 0 0 30 c0 44 -19 77 -55
95 -41 19 -72 19 -107 -1z"/>
<path d="M6595 7899 c-28 -8 -55 -33 -55 -51 0 -14 37 -9 69 10 35 20 64 9 69
-25 3 -22 -20 -33 -69 -33 -66 0 -103 -76 -59 -120 24 -24 78 -26 106 -5 25
19 34 19 34 0 0 -8 9 -15 20 -15 19 0 20 7 20 96 0 108 -7 127 -51 143 -37 13
-43 13 -84 0z"/>
<path d="M7015 7899 c-28 -8 -55 -33 -55 -51 0 -14 37 -9 69 10 35 20 64 9 69
-25 3 -22 -20 -33 -69 -33 -66 0 -103 -76 -59 -120 24 -24 78 -26 106 -5 25
19 34 19 34 0 0 -8 9 -15 20 -15 19 0 20 7 20 96 0 108 -7 127 -51 143 -37 13
-43 13 -84 0z"/>
<path d="M430 6903 c-65 -33 -70 -56 -70 -343 0 -287 5 -310 70 -342 33 -17
99 -18 950 -18 542 0 909 4 901 9 -11 7 -9 10 10 14 l24 4 -24 2 -24 1 23 20
23 20 -24 0 c-19 0 -21 2 -9 10 13 9 13 10 0 11 -8 0 -4 5 10 9 l25 8 -24 1
-24 1 23 20 23 20 -24 0 c-19 0 -21 2 -9 10 13 9 13 10 0 11 -8 0 -4 5 10 9
l25 8 -24 1 -24 1 23 20 23 20 -24 0 c-19 0 -21 2 -9 10 13 9 13 10 0 11 -8 0
-4 5 10 9 l25 8 -24 1 -24 1 23 20 23 20 -24 0 c-19 0 -21 2 -9 10 13 9 13 10
0 11 -8 0 -4 5 10 9 l25 8 -24 1 -24 1 23 20 23 20 -24 0 c-19 0 -21 2 -9 10
13 9 13 10 0 11 -8 0 -4 5 10 9 l25 8 -24 1 -24 1 23 20 23 20 -24 0 c-19 0
-21 2 -9 10 13 9 13 10 0 11 -8 0 -4 5 10 9 l25 8 -24 1 -24 1 23 20 23 20
-24 0 c-19 0 -21 2 -9 10 13 9 13 10 0 11 -8 0 -4 5 10 9 l25 8 -24 1 -24 1
23 20 23 20 -24 0 c-19 0 -21 2 -9 10 13 9 13 10 0 11 -8 0 -4 5 10 9 l25 8
-24 1 -24 1 22 19 21 19 -27 5 c-16 3 -431 6 -923 6 -834 1 -897 0 -930 -16z
m374 -234 l66 -51 0 -92 c0 -58 -4 -96 -12 -104 -8 -8 -53 -12 -138 -12 -85 0
-130 4 -138 12 -8 8 -12 46 -12 104 l0 92 66 51 c37 28 74 51 84 51 10 0 47
-23 84 -51z m336 -44 c0 -32 2 -35 30 -35 28 0 30 3 30 35 0 31 3 35 25 35 25
0 25 -1 25 -90 0 -89 0 -90 -25 -90 -22 0 -25 4 -25 35 0 32 -2 35 -30 35 -28
0 -30 -3 -30 -35 0 -31 -3 -35 -25 -35 -25 0 -25 1 -25 90 0 89 0 90 25 90 22
0 25 -4 25 -35z m248 -32 c6 -9 12 -31 12 -48 0 -41 -18 -63 -57 -71 -26 -5
-37 -1 -57 19 -15 15 -26 38 -26 52 0 14 11 37 26 52 20 20 31 24 57 19 18 -3
38 -14 45 -23z m127 16 c3 -5 14 -3 25 3 14 9 25 9 44 0 24 -11 26 -17 26 -72
0 -53 -2 -60 -19 -60 -17 0 -20 8 -23 47 -4 66 -28 70 -28 4 0 -48 -2 -51 -25
-51 -23 0 -25 3 -25 50 0 38 -4 50 -15 50 -11 0 -15 -12 -15 -50 0 -47 -2 -50
-25 -50 -24 0 -25 2 -25 63 0 35 3 66 6 70 9 9 93 6 99 -4z m233 -16 c6 -9 12
-27 12 -40 0 -21 -5 -23 -46 -23 -28 0 -43 -4 -39 -10 4 -6 23 -7 46 -4 44 7
52 -6 17 -30 -32 -23 -65 -20 -93 9 -32 31 -32 69 1 102 20 20 31 24 57 19 18
-3 38 -14 45 -23z"/>
<path d="M653 6637 l-53 -42 0 -71 c0 -56 3 -73 16 -78 9 -3 55 -6 104 -6 49
0 95 3 104 6 13 5 16 21 15 78 l0 71 -54 43 c-30 23 -60 42 -67 41 -7 0 -37
-19 -65 -42z"/>
<path d="M5259 6230 c-89 -11 -208 -44 -272 -77 -176 -89 -322 -235 -411 -410
-80 -160 -102 -406 -53 -594 63 -242 231 -445 464 -563 29 -14 96 -38 150 -52
81 -22 120 -26 223 -26 197 0 335 43 498 155 113 78 218 201 287 336 80 159
102 406 51 594 -55 206 -177 375 -357 498 -116 79 -261 129 -411 142 l-48 5 0
-159 c0 -177 -8 -162 85 -174 127 -17 269 -113 354 -239 93 -138 112 -336 49
-499 -58 -149 -211 -284 -369 -328 -24 -6 -87 -12 -139 -12 -52 0 -115 6 -139
12 -158 44 -311 179 -369 328 -63 163 -44 361 49 499 85 126 227 222 354 239
93 12 85 -3 85 176 0 87 -3 158 -7 158 -5 -1 -38 -5 -74 -9z"/>
<path d="M6640 6050 l0 -100 51 0 c28 0 59 5 70 10 23 13 26 62 4 80 -12 10
-13 15 -1 32 31 43 -7 78 -85 78 l-39 0 0 -100z"/>
<path d="M7416 6142 c-8 -13 -66 -175 -66 -184 0 -19 31 -6 40 17 8 20 16 25
45 25 28 0 38 -5 47 -25 6 -14 19 -25 28 -25 15 0 14 9 -11 81 -16 44 -34 89
-39 100 -11 19 -35 26 -44 11z"/>
<path d="M7880 6080 c-26 -26 -27 -90 -2 -113 25 -23 75 -21 96 2 26 29 24 91
-4 113 -29 24 -65 23 -90 -2z"/>
<path d="M673 5749 c-76 -22 -124 -110 -103 -189 31 -115 175 -154 259 -69 83
83 46 227 -67 259 -43 11 -46 11 -89 -1z m133 -40 c66 -61 71 -145 13 -205
-100 -103 -262 -14 -235 130 7 35 46 82 81 97 37 16 113 4 141 -22z"/>
<path d="M1100 5605 c0 -69 3 -85 15 -85 12 0 15 14 16 63 l0 62 24 -60 c12
-33 29 -60 36 -60 8 0 23 25 34 58 11 31 23 57 27 57 5 0 8 -27 8 -60 0 -33 4
-60 10 -60 6 0 10 35 10 85 0 82 -1 85 -23 85 -20 0 -27 -9 -42 -60 -10 -33
-21 -60 -24 -60 -3 0 -15 27 -25 60 -16 51 -23 60 -43 60 -22 0 -23 -3 -23
-85z"/>
<path d="M1530 5605 l0 -85 44 0 c65 0 101 47 61 80 -11 9 -13 16 -5 24 15 15
12 53 -6 60 -9 3 -33 6 -55 6 l-39 0 0 -85z"/>
<path d="M14400 5454 c0 -45 0 -45 -22 -30 -30 21 -50 20 -81 -4 -45 -35 -48
-119 -7 -160 24 -24 73 -26 94 -4 15 14 16 14 16 0 0 -9 8 -16 20 -16 19 0 20
7 20 130 0 123 -1 130 -20 130 -17 0 -20 -7 -20 -46z"/>
<path d="M14516 5419 c-34 -27 -20 -50 17 -30 28 15 69 11 75 -6 4 -14 -1 -16
-66 -33 -55 -14 -73 -47 -48 -85 18 -27 61 -34 97 -15 13 7 19 7 19 0 0 -5 9
-10 20 -10 18 0 20 7 20 78 0 83 -4 93 -37 111 -33 17 -67 13 -97 -10z"/>
<path d="M14864 5430 c-29 -11 -39 -29 -25 -43 8 -8 17 -7 34 2 30 16 61 11
65 -11 2 -12 -8 -18 -40 -23 -24 -4 -51 -14 -60 -23 -22 -19 -23 -55 -2 -76
18 -19 75 -21 92 -4 9 9 12 9 12 0 0 -7 11 -12 25 -12 24 0 25 2 25 75 0 67
-3 79 -25 100 -25 26 -62 31 -101 15z"/>
<path d="M15170 5427 c-60 -31 -67 -131 -11 -174 22 -17 82 -16 108 2 54 38
50 141 -7 170 -35 18 -57 19 -90 2z"/>
<path d="M15350 5362 c0 -93 15 -122 62 -122 17 0 40 7 50 17 17 15 18 15 18
0 0 -10 8 -17 20 -17 20 0 21 5 18 98 -3 89 -5 97 -23 97 -18 0 -21 -8 -25
-75 -5 -69 -7 -75 -28 -78 -40 -6 -52 14 -52 89 0 62 -2 69 -20 69 -18 0 -20
-7 -20 -78z"/>
<path d="M14903 5036 c-40 -18 -53 -43 -53 -101 0 -65 31 -95 100 -95 27 0 50
4 50 8 0 5 -13 7 -30 4 -50 -7 -79 6 -97 42 -20 43 -11 99 20 121 33 23 92 19
117 -7 27 -29 25 -101 -2 -106 -15 -3 -18 4 -18 41 0 41 -2 45 -27 50 -35 7
-63 -17 -63 -53 0 -39 18 -50 81 -47 l54 2 3 50 c2 42 -1 54 -21 73 -30 28
-74 35 -114 18z"/>
<path d="M6750 5001 c0 -12 -9 -21 -26 -25 -74 -19 -99 -103 -43 -150 17 -14
39 -26 50 -26 16 0 19 -7 19 -50 0 -57 -18 -67 -46 -24 -23 34 -60 30 -56 -6
3 -30 35 -59 73 -67 19 -3 29 -12 31 -27 4 -28 22 -27 26 2 3 16 10 22 28 22
36 0 84 51 84 88 0 39 -32 78 -75 92 -33 11 -35 14 -35 56 0 48 11 55 37 24
10 -11 28 -20 40 -20 51 0 9 71 -49 85 -18 5 -28 14 -28 26 0 10 -7 19 -15 19
-8 0 -15 -9 -15 -19z"/>
<path d="M6968 4953 c-26 -17 -38 -33 -38 -49 0 -29 7 -30 40 -4 14 11 28 20
33 20 4 0 7 -61 7 -135 l0 -135 30 0 30 0 0 165 0 165 -32 -1 c-18 0 -50 -12
-70 -26z"/>
<path d="M7158 4953 c-26 -17 -38 -33 -38 -49 0 -29 7 -30 40 -4 14 11 28 20
33 20 4 0 7 -61 7 -135 l0 -135 30 0 30 0 0 165 0 165 -32 -1 c-18 0 -50 -12
-70 -26z"/>
<path d="M7379 4965 c-40 -21 -63 -79 -63 -155 0 -108 41 -160 125 -160 51 0
91 27 109 75 14 38 12 140 -4 179 -28 68 -104 95 -167 61z m108 -61 c11 -18
17 -46 17 -88 0 -66 -13 -99 -45 -116 -26 -14 -65 9 -80 48 -15 38 -5 139 17
163 25 28 70 25 91 -7z"/>
<path d="M7785 4958 c-37 -29 -55 -76 -55 -143 0 -104 46 -165 126 -165 61 0
99 35 115 104 21 94 -10 195 -67 216 -42 16 -89 12 -119 -12z m110 -48 c23
-26 31 -115 15 -164 -20 -60 -82 -69 -110 -16 -15 29 -12 137 5 170 19 36 62
41 90 10z"/>
<path d="M8085 4958 c-38 -29 -55 -76 -55 -148 0 -104 42 -159 120 -160 84 0
124 52 124 165 0 47 -6 81 -17 102 -33 62 -120 83 -172 41z m109 -47 c22 -24
32 -125 17 -163 -15 -39 -54 -62 -80 -48 -32 17 -45 50 -45 116 0 76 21 114
63 114 15 0 36 -9 45 -19z"/>
<path d="M582 4584 c-21 -14 -22 -23 -22 -134 0 -67 4 -121 10 -125 5 -3 19
-1 31 5 16 9 24 8 40 -6 18 -16 20 -16 38 0 16 14 24 15 40 6 33 -17 41 -4 41
71 0 69 0 69 28 69 37 0 52 17 52 57 0 60 -25 73 -138 73 -72 0 -103 -4 -120
-16z m165 -119 c3 -103 0 -125 -11 -125 -8 0 -18 5 -21 11 -5 7 -15 5 -31 -6
-22 -14 -26 -14 -48 0 -16 11 -26 13 -31 6 -3 -6 -13 -11 -21 -11 -11 0 -14
21 -14 109 0 133 6 141 110 141 l65 0 2 -125z"/>
<path d="M14270 3660 c0 -82 3 -100 15 -100 12 0 15 15 16 73 l0 72 27 -72
c17 -47 32 -73 42 -73 10 0 24 25 40 73 l25 72 3 -72 c2 -56 6 -73 17 -73 12
0 15 19 15 100 0 91 -2 100 -19 100 -25 0 -36 -15 -57 -82 -10 -32 -21 -58
-24 -58 -4 0 -13 19 -20 43 -19 66 -39 97 -60 97 -19 0 -20 -7 -20 -100z"/>
<path d="M14748 3754 c-5 -4 -8 -49 -8 -101 l0 -93 53 0 c85 0 123 44 78 89
-16 16 -17 20 -5 25 19 7 18 50 -1 66 -18 15 -106 26 -117 14z"/>
<path d="M4120 3310 c0 -123 1 -130 20 -130 17 0 20 7 20 50 0 47 2 50 25 50
20 0 30 -10 50 -50 20 -40 30 -50 50 -50 14 0 25 2 25 4 0 2 -11 24 -26 49
l-25 46 20 20 c14 14 21 34 21 60 0 58 -33 81 -116 81 l-64 0 0 -130z"/>
<path d="M5420 3401 c0 -10 -7 -21 -15 -25 -8 -3 -15 -12 -15 -21 0 -8 7 -15
15 -15 12 0 15 -14 15 -64 0 -74 14 -96 61 -96 33 0 40 25 9 33 -17 4 -20 14
-20 66 0 48 3 61 15 61 8 0 15 9 15 20 0 11 -7 20 -15 20 -8 0 -15 9 -15 20 0
15 -7 20 -25 20 -18 0 -25 -5 -25 -19z"/>
<path d="M2650 3386 c0 -19 -4 -22 -25 -18 -53 10 -84 -56 -50 -105 12 -16 25
-21 60 -21 l45 1 0 84 c0 67 -3 83 -15 83 -9 0 -15 -9 -15 -24z"/>
<path d="M4385 3368 c-40 -22 -58 -72 -44 -123 12 -43 43 -65 89 -65 34 0 80
22 80 39 0 16 -39 19 -51 5 -23 -28 -79 -5 -79 32 0 11 16 14 70 14 l70 0 -6
28 c-11 44 -24 62 -50 72 -33 13 -54 12 -79 -2z"/>
<path d="M4579 3351 c-24 -24 -29 -38 -29 -76 0 -61 32 -95 90 -95 38 0 80 25
80 49 0 5 -9 11 -20 14 -11 3 -20 1 -20 -4 0 -5 -12 -15 -26 -21 -23 -11 -29
-10 -45 11 -21 26 -24 62 -9 92 13 23 68 26 76 4 7 -18 30 -20 40 -3 11 17
-43 58 -77 58 -20 0 -40 -10 -60 -29z"/>
<path d="M4790 3352 c-40 -41 -43 -110 -5 -147 30 -31 92 -34 126 -6 33 26 17
37 -31 21 -36 -12 -42 -11 -60 5 -38 34 -26 45 51 45 l72 0 -7 32 c-9 43 -34
67 -79 75 -31 5 -40 1 -67 -25z"/>
<path d="M4980 3280 c0 -93 1 -100 20 -100 18 0 20 7 20 63 0 73 15 101 51 95
23 -3 24 -7 27 -80 3 -75 4 -78 27 -78 24 0 25 2 25 75 0 67 -3 79 -25 100
-28 29 -51 31 -83 9 -20 -14 -22 -14 -22 0 0 9 -9 16 -20 16 -19 0 -20 -7 -20
-100z"/>
<path d="M5703 3356 c-25 -22 -26 -25 -10 -32 10 -3 23 -2 30 5 16 16 64 14
71 -4 6 -17 4 -18 -62 -35 -55 -14 -73 -47 -48 -85 18 -27 61 -34 97 -15 13 7
19 7 19 0 0 -5 9 -10 20 -10 18 0 20 7 20 79 0 74 -2 81 -26 100 -35 28 -77
26 -111 -3z"/>
<path d="M5890 3280 c0 -93 1 -100 20 -100 18 0 20 7 20 63 0 73 15 101 51 95
23 -3 24 -7 27 -80 3 -75 4 -78 27 -78 24 0 25 2 25 75 0 67 -3 79 -25 100
-28 29 -51 31 -83 9 -20 -14 -22 -14 -22 0 0 9 -9 16 -20 16 -19 0 -20 -7 -20
-100z"/>
<path d="M6140 3368 c-28 -15 -39 -60 -20 -82 6 -8 31 -19 56 -25 34 -9 45
-16 42 -29 -4 -23 -45 -27 -68 -7 -13 12 -23 14 -36 7 -15 -9 -15 -11 5 -31
29 -29 99 -29 129 -1 40 37 21 74 -48 94 -25 7 -45 19 -45 27 0 18 42 24 59
10 14 -12 46 -5 46 9 0 29 -81 48 -120 28z"/>
<path d="M6344 3371 c-29 -12 -39 -30 -25 -44 8 -8 17 -7 34 2 30 16 61 11 65
-11 2 -13 -7 -18 -43 -24 -25 -3 -53 -13 -60 -21 -22 -21 -19 -70 4 -83 26
-14 74 -13 89 2 9 9 12 9 12 0 0 -7 12 -12 26 -12 l27 0 -5 81 c-3 52 -10 85
-20 95 -18 18 -76 27 -104 15z"/>
<path d="M6555 3368 c-40 -22 -58 -72 -44 -123 12 -43 43 -65 91 -65 36 0 78
26 78 49 0 5 -9 11 -20 14 -11 3 -20 1 -20 -4 0 -5 -11 -15 -25 -21 -48 -22
-85 47 -55 103 13 23 52 25 70 4 15 -18 36 -19 46 -3 11 17 -42 58 -74 58 -15
0 -36 -6 -47 -12z"/>
<path d="M6969 3351 c-24 -24 -29 -38 -29 -76 0 -62 32 -95 90 -95 58 0 90 33
90 95 0 59 -40 105 -90 105 -22 0 -41 -9 -61 -29z"/>
<path d="M7167 3373 c-4 -3 -7 -48 -7 -100 0 -92 0 -93 25 -93 23 0 24 3 27
71 2 55 7 74 21 83 12 8 22 8 35 0 13 -9 18 -28 20 -83 3 -63 5 -71 23 -71 18
0 20 6 17 87 -3 84 -4 88 -31 103 -25 14 -30 13 -56 -2 -25 -14 -30 -14 -35
-2 -6 15 -28 19 -39 7z"/>
<path d="M7404 3357 c-40 -35 -28 -72 29 -88 57 -17 70 -28 56 -45 -15 -18
-44 -18 -63 1 -14 14 -46 11 -46 -5 0 -19 40 -40 76 -40 56 0 86 23 82 63 -3
29 -8 34 -53 48 -58 18 -75 49 -28 49 16 0 34 -5 40 -11 7 -7 17 -8 28 -2 15
9 14 12 -10 31 -36 28 -77 28 -111 -1z"/>
<path d="M14475 2986 c-95 -30 -158 -87 -191 -172 -18 -47 -19 -96 -19 -1229
0 -1137 1 -1182 19 -1229 25 -66 84 -128 149 -157 l52 -24 1028 -3 c908 -2
1030 -1 1043 13 14 13 13 15 -7 15 l-22 0 23 20 23 20 -23 0 -23 0 23 20 23
20 -23 0 -23 0 23 20 23 20 -23 0 -23 0 23 20 23 20 -23 0 -23 0 23 20 23 20
-23 0 -23 0 23 20 23 20 -23 0 -23 0 23 20 23 20 -23 0 -23 0 23 20 23 20 -23
0 -23 0 23 20 23 20 -23 0 -23 0 23 20 23 20 -23 0 -23 0 23 20 23 20 -23 0
-23 0 23 20 23 20 -23 0 -23 0 23 20 23 20 -23 0 -23 0 23 20 23 20 -23 0 -23
0 23 20 23 20 -23 0 -23 0 23 20 23 20 -23 0 -23 0 23 20 23 20 -23 0 -23 0
23 20 23 20 -23 0 -23 0 23 20 23 20 -23 0 -23 0 23 20 23 20 -23 0 -23 0 23
20 23 20 -23 0 -23 0 23 20 23 20 -23 0 -23 0 23 20 23 20 -23 0 -23 0 23 20
23 20 -23 0 -23 0 23 20 23 20 -23 0 -23 0 23 20 23 20 -23 0 -23 0 23 20 23
20 -23 0 -23 0 23 20 23 20 -23 0 -23 0 23 20 23 20 -23 0 -23 0 23 20 23 20
-23 0 -23 0 23 20 23 20 -23 0 -23 0 23 20 23 20 -23 0 -23 0 23 20 23 20 -23
0 -23 0 23 20 23 20 -23 0 -23 0 23 20 23 20 -23 0 -23 0 23 20 23 20 -23 0
-23 0 23 20 23 20 -23 0 -23 0 23 20 23 20 -23 0 -23 0 23 20 23 20 -23 0 -23
0 23 20 23 20 -23 0 -23 0 23 20 23 20 -23 0 -23 0 23 20 23 20 -23 0 -23 0
23 20 23 20 -23 0 -23 0 23 20 23 20 -23 0 -23 0 23 20 23 20 -23 0 -23 0 23
20 23 20 -23 0 -23 0 23 20 23 20 -23 0 -23 0 23 20 23 20 -23 0 -23 0 23 20
23 20 -23 0 -23 0 23 20 23 20 -23 0 -23 0 23 20 23 20 -23 0 -23 0 23 20 23
20 -23 0 -23 0 23 20 23 20 -23 0 -23 0 23 20 23 20 -23 0 -23 0 23 20 23 20
-23 0 -23 0 23 20 23 20 -23 0 -23 0 23 20 23 20 -23 0 -23 0 23 20 23 20 -23
0 -23 0 23 20 23 20 -23 0 -23 0 23 20 23 20 -23 0 -23 0 23 20 23 20 -23 0
-23 0 23 20 23 20 -23 0 -23 0 23 20 23 20 -23 0 -23 0 23 20 23 20 -23 0 -23
0 23 20 23 20 -23 0 -23 0 23 20 23 20 -23 0 -23 0 23 20 23 20 -23 0 -23 0
23 20 23 20 -23 0 -23 0 23 20 23 20 -23 0 -23 0 23 20 23 20 -1029 -1 c-800
0 -1038 -3 -1069 -13z m215 -386 c40 -40 12 -100 -46 -100 -31 0 -34 -2 -34
-30 0 -23 -4 -30 -20 -30 -19 0 -20 7 -20 90 l0 90 50 0 c37 0 55 -5 70 -20z
m420 -69 l0 -88 -41 -7 c-62 -10 -89 11 -89 69 0 36 5 48 25 61 14 9 34 14 45
11 16 -4 20 0 20 19 0 17 6 24 20 24 18 0 20 -7 20 -89z m225 64 c14 -13 25
-29 25 -35 0 -16 -47 -12 -54 5 -3 8 -17 15 -31 15 -32 0 -49 -38 -35 -75 13
-33 36 -42 59 -21 10 9 27 16 39 16 19 0 20 -3 10 -24 -13 -30 -59 -50 -93
-42 -66 17 -90 112 -40 161 33 34 87 34 120 0z m75 0 c0 -22 3 -25 25 -19 42
10 65 -19 65 -83 0 -50 -1 -53 -25 -53 -23 0 -25 3 -25 50 0 36 -4 50 -14 50
-17 0 -26 -22 -26 -66 0 -27 -4 -34 -20 -34 -19 0 -20 7 -20 90 0 83 1 90 20
90 15 0 20 -7 20 -25z m430 -17 l0 -41 23 21 c17 16 36 22 70 22 l47 0 0 -70
0 -70 -51 0 c-40 0 -55 5 -70 23 l-18 22 -1 -22 c0 -16 -6 -23 -20 -23 -19 0
-20 7 -20 90 0 83 1 90 20 90 17 0 20 -7 20 -42z m-215 -23 l25 -24 26 26 c20
20 31 24 57 19 18 -3 38 -14 45 -24 11 -14 10 -18 -8 -26 -16 -7 -24 -6 -30 4
-13 20 -40 4 -40 -25 0 -27 31 -48 38 -27 4 14 38 16 46 3 10 -15 -18 -41 -51
-47 -28 -5 -37 -2 -62 25 -23 25 -37 31 -70 31 -23 0 -41 -5 -41 -11 0 -7 14
-8 40 -4 32 5 40 4 40 -9 0 -18 -30 -36 -60 -36 -29 0 -70 44 -70 75 0 31 41
75 70 75 11 0 32 -11 45 -25z m655 -54 c0 -95 -12 -116 -68 -116 -41 0 -76 20
-66 37 3 5 23 7 45 3 25 -4 39 -3 39 4 0 6 -16 11 -35 11 -40 0 -55 20 -55 74
0 45 26 64 91 64 l49 1 0 -78z m-1640 -259 c0 -4 10 -12 23 -17 12 -6 22 -19
22 -30 0 -14 -6 -20 -22 -19 -13 0 -23 -2 -23 -5 0 -4 10 -11 23 -16 17 -8 22
-18 22 -45 0 -27 -5 -37 -22 -45 -13 -5 -23 -13 -23 -17 0 -5 -7 -8 -15 -8 -8
0 -15 4 -15 9 0 5 -12 12 -26 15 -34 9 -31 51 4 50 12 0 22 3 22 8 0 4 -7 8
-15 8 -38 0 -43 83 -5 95 11 3 20 11 20 16 0 5 7 9 15 9 8 0 15 -3 15 -8z
m471 -29 c8 -9 14 -39 14 -70 0 -45 -4 -58 -24 -74 -30 -25 -66 -24 -91 1 -26
26 -28 114 -3 142 21 23 85 24 104 1z m217 -12 l18 -30 11 30 c10 26 16 29 58
29 44 0 47 -2 61 -37 22 -50 9 -112 -27 -132 -37 -21 -77 -7 -94 32 -8 18 -14
26 -15 19 0 -21 -47 -62 -70 -62 -37 0 -70 44 -70 92 0 62 21 88 71 88 33 0
42 -5 57 -29z m-510 -1137 c7 -12 24 -17 58 -18 l49 -1 3 -47 c3 -44 1 -48
-20 -50 -21 -1 -85 0 -115 1 -8 1 -14 18 -15 44 l-1 42 -4 -41 c-4 -39 -6 -42
-40 -47 -43 -7 -65 7 -61 37 2 15 12 22 31 24 15 2 27 7 27 12 0 5 -13 7 -30
4 -19 -4 -30 -2 -30 5 0 12 38 24 66 21 34 -4 44 0 44 15 0 20 27 19 38 -1z"/>
<path d="M17680 2600 c0 -220 1 -400 3 -400 2 0 53 -9 113 -21 154 -29 634
-40 659 -15 9 9 12 16 6 16 -15 0 -14 27 2 33 10 4 10 6 0 6 -7 1 -13 7 -13
15 0 8 6 17 13 19 10 4 10 6 0 6 -7 1 -13 7 -13 15 0 8 6 17 13 19 10 4 10 6
0 6 -7 1 -13 7 -13 15 0 8 6 17 13 19 6 3 2 6 -11 6 -18 1 -23 6 -20 24 2 12
8 28 15 35 7 7 9 20 6 28 -3 9 0 20 8 25 10 6 10 9 2 9 -7 0 -13 6 -13 14 0 8
6 17 13 19 10 4 10 6 0 6 -7 1 -13 7 -13 15 0 8 6 17 13 19 10 4 10 6 0 6 -7
1 -13 8 -13 16 0 8 6 15 13 15 8 0 8 3 -2 9 -8 5 -11 16 -8 24 3 8 -1 26 -8
41 -15 27 -16 68 -3 60 4 -3 8 1 8 10 0 8 6 17 13 19 10 4 10 6 0 6 -7 1 -13
7 -13 15 0 8 6 17 13 19 10 4 10 6 0 6 -7 1 -13 7 -13 15 0 8 6 17 13 19 10 4
10 6 0 6 -7 1 -13 7 -13 15 0 8 6 17 13 19 10 4 10 6 0 6 -7 1 -13 7 -13 15 0
8 6 17 13 19 10 4 10 6 0 6 -7 1 -13 7 -13 15 0 8 6 17 13 19 10 4 10 6 0 6
-16 1 -17 31 -2 31 6 0 4 7 -5 15 -12 13 -70 15 -395 15 l-381 0 0 -400z"/>
<path d="M634 2525 c-13 -19 -15 -44 -12 -119 2 -57 8 -100 15 -107 8 -8 55
-14 123 -17 121 -5 164 5 174 41 9 35 7 97 -4 97 -5 0 -10 -22 -10 -48 0 -26
-5 -53 -12 -60 -17 -17 -239 -17 -256 0 -7 7 -12 40 -12 80 0 64 1 68 26 74
14 4 50 4 80 1 29 -3 56 -1 59 4 4 5 -29 9 -79 9 -77 0 -86 2 -86 19 0 30 22
40 100 44 l75 3 -82 2 c-78 2 -83 1 -99 -23z"/>
<path d="M17682 2179 c4 -13 3 -13 214 -87 78 -28 159 -59 181 -71 58 -29 66
-62 21 -90 -51 -32 -254 -72 -350 -70 l-53 2 55 7 c137 18 301 58 332 81 29
22 15 39 -55 68 -29 12 -60 26 -69 31 -10 6 -23 10 -29 10 -6 0 -25 6 -42 14
-18 7 -61 24 -97 36 -36 13 -70 27 -77 33 -7 5 -17 7 -23 5 -6 -2 13 -19 42
-38 58 -39 84 -76 66 -97 -11 -14 -57 -37 -95 -48 -22 -6 -23 -11 -23 -101 l0
-94 34 0 c59 0 484 55 546 70 37 10 170 25 183 22 4 -1 7 4 7 12 0 8 6 17 13
19 10 4 10 6 0 6 -7 1 -13 7 -13 15 0 8 6 17 13 19 10 4 10 6 0 6 -7 1 -13 7
-13 15 0 8 6 17 13 19 10 4 10 6 0 6 -7 1 -13 7 -13 15 0 8 6 17 13 19 6 3
-28 6 -78 6 -150 2 -308 35 -465 96 -52 20 -117 42 -145 49 -27 7 -61 16 -74
21 -17 5 -22 4 -19 -6z"/>
<path d="M17965 2120 c95 -32 232 -58 337 -65 97 -7 123 -1 156 32 11 11 8 13
-20 13 -19 0 -39 -5 -46 -12 -14 -14 -217 4 -312 27 -30 7 -82 16 -115 19
l-60 6 60 -20z"/>
<path d="M7750 2065 c0 -13 117 -15 990 -15 873 0 990 2 990 15 0 13 -117 15
-990 15 -873 0 -990 -2 -990 -15z"/>
<path d="M18311 1814 c-73 -7 -140 -15 -147 -18 -7 -3 -107 -12 -221 -21 -273
-20 -263 -18 -263 -62 l0 -36 68 6 c355 33 429 41 632 63 35 4 71 13 78 21 8
7 9 13 3 13 -15 0 -14 27 1 32 36 12 -32 13 -151 2z"/>
<path d="M18279 1706 c-5 -6 -212 -20 -456 -32 l-143 -7 0 -34 0 -34 148 6
c81 4 154 9 162 11 8 3 106 11 218 19 113 8 210 19 217 25 6 5 15 7 18 3 4 -3
7 1 7 10 0 10 5 17 12 17 6 0 9 2 6 5 -8 8 -182 18 -189 11z"/>
<path d="M18335 1614 c-27 -2 -144 -8 -260 -14 -115 -6 -252 -13 -302 -16
l-93 -6 0 -72 0 -73 28 4 c15 1 122 8 237 14 410 23 460 27 495 37 19 5 29 10
23 11 -7 1 -13 7 -13 14 0 11 -27 13 -132 10 -460 -14 -628 -17 -628 -12 0 3
55 9 123 13 67 3 187 11 267 16 80 6 198 14 262 18 65 5 120 11 124 15 4 4 2
7 -4 7 -16 0 -15 27 1 33 12 6 -39 6 -128 1z"/>
<path d="M18035 1429 c-126 -4 -258 -7 -292 -8 l-63 -1 0 -35 0 -35 53 5 c106
11 361 25 445 25 81 0 211 24 222 40 3 4 14 10 25 13 22 6 -50 5 -390 -4z"/>
<path d="M18345 1361 c-68 -23 -106 -45 -103 -59 6 -29 187 -72 219 -51 10 6
10 9 2 9 -7 0 -13 7 -13 15 0 8 6 15 13 15 8 0 7 3 -3 9 -8 6 -18 7 -22 5 -4
-3 -8 2 -8 10 0 9 -7 16 -15 16 -8 0 -20 9 -27 20 -7 11 -15 20 -18 19 -3 -1
-14 -4 -25 -8z"/>
<path d="M17920 1349 c-124 -4 -228 -7 -232 -8 -5 0 -8 -14 -8 -31 l0 -30 83
1 c45 0 145 4 222 8 129 7 145 10 205 39 l65 32 -55 -3 c-30 -1 -156 -5 -280
-8z"/>
<path d="M18155 1279 c-62 -33 -66 -52 -17 -81 63 -36 312 -69 312 -41 0 7 5
13 11 13 25 0 -24 31 -63 40 -116 25 -140 33 -167 61 -16 16 -31 29 -33 29 -2
0 -21 -10 -43 -21z"/>
<path d="M17788 1263 l-108 -4 0 -35 0 -36 48 6 c26 3 92 8 147 12 81 5 108
11 143 31 23 14 42 27 42 29 0 4 -47 3 -272 -3z"/>
<path d="M18027 1217 c-85 -49 -43 -101 113 -142 61 -15 352 -33 323 -19 -7 3
-13 12 -13 19 0 7 6 16 13 18 8 4 7 6 -3 7 -97 8 -263 39 -274 51 -6 5 -19 9
-30 9 -10 0 -36 17 -56 39 l-37 39 -36 -21z"/>
<path d="M5680 1188 c0 -25 -3 -29 -12 -20 -7 7 -21 12 -33 12 -32 0 -45 -19
-45 -65 0 -46 13 -65 45 -65 12 0 26 5 33 12 9 9 12 9 12 0 0 -7 7 -12 15 -12
12 0 15 16 15 85 0 69 -3 85 -15 85 -10 0 -15 -10 -15 -32z"/>
<path d="M6770 1161 c-16 -31 -12 -76 10 -96 17 -15 24 -16 45 -7 22 10 25 9
25 -8 0 -22 -35 -36 -53 -21 -7 5 -19 6 -26 2 -11 -7 -9 -11 7 -20 29 -16 68
-14 86 5 22 22 23 164 1 164 -8 0 -15 -5 -15 -12 0 -9 -3 -9 -12 0 -18 18 -56
14 -68 -7z"/>
<path d="M17913 1151 c-134 -82 62 -183 384 -197 124 -6 143 -5 158 9 9 10 12
17 6 17 -6 0 -11 6 -11 14 0 11 -19 16 -72 19 -224 15 -383 67 -413 135 -12
27 -12 27 -52 3z"/>
<path d="M17819 1094 c-14 -7 -34 -25 -43 -39 -14 -22 -15 -29 -4 -52 21 -42
86 -81 148 -88 34 -4 50 -3 42 3 -16 11 35 21 108 23 l45 1 -60 17 c-125 38
-176 69 -199 122 -11 25 -13 26 -37 13z"/>
<path d="M690 1048 c0 -33 -3 -39 -12 -30 -20 20 -65 14 -82 -10 -23 -32 -20
-94 4 -118 22 -22 60 -26 78 -8 9 9 12 9 12 0 0 -7 9 -12 20 -12 19 0 20 7 20
110 0 103 -1 110 -20 110 -17 0 -20 -7 -20 -42z"/>
<path d="M17706 1019 c-21 -17 -26 -29 -26 -68 0 -40 5 -51 33 -77 48 -45 81
-63 144 -78 102 -25 120 -28 103 -16 -13 9 -13 10 0 10 13 0 13 1 0 10 -13 9
-13 10 0 10 13 0 13 1 0 10 -13 9 -13 10 0 10 13 0 13 1 0 10 -8 5 -10 10 -5
10 13 0 -44 30 -57 30 -10 0 -40 22 -103 73 -18 15 -37 41 -40 57 -8 36 -14
37 -49 9z"/>
<path d="M17680 793 c0 -88 1 -90 33 -120 37 -35 106 -64 145 -61 15 1 37 -2
50 -6 29 -10 71 2 51 15 -12 7 -11 9 1 9 13 0 13 1 0 10 -13 9 -13 10 0 10 13
0 13 1 0 10 -13 9 -13 10 0 10 13 0 13 1 0 10 -13 9 -13 10 0 10 13 0 13 1 0
10 -13 9 -13 10 0 10 8 0 -7 10 -35 22 -27 12 -52 24 -55 28 -3 3 -27 16 -55
29 -27 13 -69 39 -92 58 l-43 34 0 -88z"/>
<path d="M18026 810 c-38 -34 -54 -97 -37 -142 36 -94 170 -112 226 -30 14 20
25 40 25 44 0 4 -19 8 -42 10 -30 2 -43 8 -43 18 0 11 10 14 43 12 35 -3 42 0
42 15 0 25 -34 74 -62 89 -13 8 -44 13 -70 14 -39 0 -54 -6 -82 -30z"/>
<path d="M5530 781 c-15 -29 -12 -104 6 -129 28 -41 86 -22 100 34 8 29 -2 82
-17 101 -18 20 -76 17 -89 -6z"/>
<path d="M5751 787 c-15 -19 -25 -72 -17 -101 14 -56 72 -75 100 -34 18 25 21
100 6 129 -13 23 -71 26 -89 6z"/>
<path d="M5900 781 c-15 -29 -12 -104 6 -129 28 -41 86 -22 100 34 8 29 -2 82
-17 101 -18 20 -76 17 -89 -6z"/>
<path d="M17680 586 l0 -94 73 -6 c39 -4 140 -11 222 -17 83 -6 222 -16 310
-22 162 -12 198 -8 169 20 -9 10 -67 13 -233 13 -147 0 -229 4 -246 12 -18 8
-22 14 -13 20 10 6 10 8 -2 8 -13 0 -13 1 0 10 13 9 13 10 0 10 -13 0 -13 1 0
10 11 7 7 10 -17 10 -18 0 -33 4 -33 8 0 5 -32 16 -71 27 -45 11 -88 31 -115
51 l-44 34 0 -94z"/>
<path d="M17680 436 l0 -44 43 -5 c23 -4 104 -9 179 -13 182 -9 238 -22 98
-23 -95 0 -200 9 -287 25 l-33 6 0 -106 0 -106 398 1 c218 0 391 3 385 6 -7 2
-13 11 -13 18 0 7 6 16 13 18 10 4 10 6 0 6 -7 1 -13 7 -13 15 0 8 6 17 13 19
10 4 10 6 0 6 -7 1 -13 7 -13 15 0 8 6 17 13 19 10 4 10 6 0 6 -7 1 -13 7 -13
15 0 8 6 17 13 19 10 4 10 6 0 6 -16 1 -17 31 -2 31 6 0 4 6 -4 14 -7 8 -38
16 -68 19 -30 3 -117 13 -194 21 -77 8 -189 20 -250 26 -60 6 -137 15 -170 20
-96 16 -95 16 -95 -34z"/>
</g>
</svg>
